<mxfile host="app.diagrams.net" modified="2024-03-24T10:32:54.915Z" agent="Mozilla/5.0 (Macintosh; Intel Mac OS X 10_15_7) AppleWebKit/537.36 (KHTML, like Gecko) Chrome/122.0.0.0 Safari/537.36" version="24.1.0" etag="nTM4xPdbtuL9B0tsW4U8" type="github">
  <diagram name="第 1 页" id="1CQaHdOtdSv4WiiMquwN">
    <mxGraphModel>
      <root>
        <mxCell id="0" />
        <mxCell id="1" parent="0" />
      </root>
    </mxGraphModel>
  </diagram>
</mxfile>
